<svg width="100" height="22" viewBox="0 0 100 22" fill="none" xmlns="http://www.w3.org/2000/svg">
<path d="M89.9781 21.5928L92.7476 15.467H92.067L87.5372 4.78796H90.2363L93.7099 13.3077L97.3948 4.78796H100L92.6068 21.5928H89.9781Z" fill="#A6E500"/>
<path d="M80.646 16.711C79.7228 16.711 78.9483 16.5545 78.3224 16.2416C77.6966 15.913 77.2271 15.4827 76.9142 14.9507C76.6013 14.4031 76.4448 13.8085 76.4448 13.1669C76.4448 12.0247 76.8594 11.1328 77.6887 10.4913C78.5337 9.84979 79.7228 9.52902 81.2562 9.52902H84.2605V9.27085C84.2605 7.51839 83.4468 6.64216 81.8195 6.64216C81.1467 6.64216 80.5756 6.7908 80.1062 7.0881C79.6524 7.36974 79.3473 7.83133 79.1908 8.47285H76.703C76.8281 7.25239 77.3523 6.2901 78.2755 5.58599C79.2143 4.86623 80.3957 4.50635 81.8195 4.50635C83.5407 4.50635 84.7925 4.92882 85.5748 5.77375C86.3572 6.61869 86.7483 7.78439 86.7483 9.27085V16.4293H84.636L84.4248 14.716H84.2605C83.9162 15.2636 83.4859 15.733 82.9696 16.1242C82.4532 16.5154 81.6787 16.711 80.646 16.711ZM81.1154 14.6221C82.1325 14.6221 82.8914 14.317 83.3921 13.7068C83.9084 13.0809 84.1901 12.2907 84.237 11.3362H81.5144C80.6225 11.3362 79.9888 11.4849 79.6133 11.7822C79.2534 12.0638 79.0735 12.4628 79.0735 12.9792C79.0735 13.4955 79.2534 13.9023 79.6133 14.1996C79.9888 14.4813 80.4895 14.6221 81.1154 14.6221Z" fill="#A6E500"/>
<path d="M64.3667 16.4293V0H69.9292C71.1809 0 72.2136 0.219057 73.0273 0.657172C73.8409 1.07964 74.4433 1.6664 74.8345 2.41746C75.2257 3.16851 75.4213 4.02909 75.4213 4.9992C75.4213 5.96932 75.2257 6.8299 74.8345 7.58095C74.4433 8.33201 73.8409 8.92659 73.0273 9.36471C72.2136 9.78718 71.1809 9.99841 69.9292 9.99841H66.8545V16.4293H64.3667ZM66.8545 7.76872H69.8118C70.8758 7.76872 71.6503 7.51837 72.1354 7.01766C72.6361 6.51696 72.8865 5.84414 72.8865 4.9992C72.8865 4.16992 72.6361 3.50492 72.1354 3.00422C71.6503 2.48787 70.8758 2.22969 69.8118 2.22969H66.8545V7.76872Z" fill="#A6E500"/>
<path d="M42.5138 16.4294V4.60025H45.5885L45.8936 6.12583C46.2691 5.57818 46.762 5.14007 47.3722 4.81148C47.9981 4.4829 48.7179 4.3186 49.5315 4.3186C50.1104 4.3186 50.6346 4.39684 51.104 4.55331C51.5734 4.69413 51.9881 4.91319 52.348 5.21048C52.7078 5.49213 53.0051 5.85201 53.2398 6.29012C53.6936 5.67989 54.2725 5.20266 54.9766 4.85842C55.6808 4.49854 56.4475 4.3186 57.2768 4.3186C58.3408 4.3186 59.217 4.52984 59.9055 4.95231C60.6096 5.37477 61.1337 5.98501 61.478 6.783C61.8222 7.581 61.9943 8.55111 61.9943 9.69334V16.4294H58.4972V9.99845C58.4972 9.13787 58.3251 8.47287 57.9809 8.00346C57.6523 7.51841 57.1203 7.27588 56.3849 7.27588C55.9155 7.27588 55.5008 7.39323 55.1409 7.62794C54.7811 7.86264 54.4994 8.19123 54.296 8.6137C54.1082 9.03616 54.0144 9.54469 54.0144 10.1393V16.4294H50.5173V9.99845C50.5173 9.13787 50.3451 8.47287 50.0009 8.00346C49.6567 7.51841 49.1012 7.27588 48.3345 7.27588C47.8964 7.27588 47.4974 7.39323 47.1375 7.62794C46.7933 7.86264 46.5195 8.19123 46.316 8.6137C46.1283 9.03616 46.0344 9.54469 46.0344 10.1393V16.4294H42.5138Z" fill="#A6E500"/>
<path d="M33.2276 16.711C32.2418 16.711 31.4204 16.5545 30.7632 16.2416C30.1217 15.9287 29.6444 15.5062 29.3315 14.9742C29.0342 14.4265 28.8856 13.8241 28.8856 13.167C28.8856 12.4628 29.0577 11.8448 29.4019 11.3128C29.7618 10.7652 30.3173 10.3349 31.0683 10.0219C31.8194 9.69334 32.766 9.52904 33.9082 9.52904H36.7716C36.7716 8.99705 36.7012 8.55893 36.5604 8.2147C36.4352 7.87047 36.224 7.61229 35.9267 7.44017C35.6294 7.26806 35.2226 7.182 34.7062 7.182C34.1586 7.182 33.697 7.29153 33.3215 7.51058C32.946 7.72964 32.7112 8.07388 32.6174 8.54328H29.2376C29.3158 7.69835 29.5897 6.96294 30.0591 6.33706C30.5441 5.71118 31.1857 5.2183 31.9837 4.85842C32.7817 4.49854 33.697 4.3186 34.7297 4.3186C35.8563 4.3186 36.8342 4.50637 37.6635 4.8819C38.4928 5.24178 39.1343 5.77377 39.5881 6.47788C40.0575 7.182 40.2922 8.05823 40.2922 9.10658V16.4294H37.3584L36.9359 14.716C36.7638 15.0133 36.5604 15.2871 36.3257 15.5375C36.091 15.7722 35.8172 15.9834 35.5042 16.1712C35.1913 16.3433 34.8471 16.4763 34.4715 16.5702C34.096 16.6641 33.6814 16.711 33.2276 16.711ZM34.096 14.0354C34.4715 14.0354 34.8001 13.9728 35.0818 13.8476C35.3634 13.7224 35.6059 13.5503 35.8093 13.3313C36.0128 13.1122 36.1771 12.8618 36.3022 12.5802C36.4431 12.2829 36.5448 11.9621 36.6073 11.6179V11.5944H34.3307C33.9395 11.5944 33.6109 11.6492 33.345 11.7587C33.0946 11.8526 32.9068 11.9934 32.7817 12.1812C32.6565 12.369 32.5939 12.588 32.5939 12.8384C32.5939 13.1044 32.6565 13.3313 32.7817 13.519C32.9225 13.6911 33.1024 13.8241 33.3215 13.918C33.5562 13.9963 33.8144 14.0354 34.096 14.0354Z" fill="#A6E500"/>
<path d="M21.3443 16.711C20.1239 16.711 19.0521 16.4606 18.1289 15.9599C17.2057 15.4436 16.4781 14.7317 15.9461 13.8241C15.4298 12.901 15.1716 11.8448 15.1716 10.6556C15.1716 9.43516 15.4298 8.3477 15.9461 7.39323C16.4625 6.43877 17.1822 5.68771 18.1054 5.14007C19.0286 4.59243 20.1004 4.3186 21.3209 4.3186C22.51 4.3186 23.5506 4.57678 24.4424 5.09313C25.3343 5.60948 26.0306 6.31359 26.5313 7.20547C27.0477 8.0817 27.3058 9.09875 27.3058 10.2566C27.3058 10.4131 27.298 10.593 27.2824 10.7964C27.2824 10.9842 27.2667 11.1798 27.2354 11.3832H17.6829V9.34128H23.7149C23.6836 8.68411 23.441 8.15993 22.9873 7.76876C22.5492 7.36194 22.0015 7.15853 21.3443 7.15853C20.8436 7.15853 20.3899 7.27588 19.9831 7.51058C19.5762 7.74529 19.2476 8.09735 18.9973 8.56676C18.7626 9.03616 18.6452 9.63075 18.6452 10.3505V11.0546C18.6452 11.6023 18.7469 12.0873 18.9503 12.5098C19.1694 12.9323 19.4745 13.2608 19.8657 13.4955C20.2725 13.7303 20.7498 13.8476 21.2974 13.8476C21.8137 13.8476 22.2362 13.7459 22.5648 13.5425C22.909 13.3234 23.175 13.0496 23.3628 12.721H26.9538C26.7347 13.4721 26.3592 14.1527 25.8272 14.763C25.2952 15.3575 24.6459 15.8348 23.8792 16.1947C23.1124 16.5389 22.2675 16.711 21.3443 16.711Z" fill="#A6E500"/>
<path d="M0 16.4293L2.88687 0H9.92801C10.9607 0 11.8213 0.15647 12.5098 0.46941C13.1982 0.766702 13.7146 1.19699 14.0588 1.76028C14.4031 2.32357 14.5595 2.98857 14.5282 3.75527C14.4969 4.58456 14.2701 5.31997 13.8476 5.96149C13.4251 6.58737 12.8696 7.0959 12.1812 7.48707C11.4927 7.8626 10.726 8.08948 9.88107 8.16771L10.3035 7.88607C10.992 7.91736 11.5788 8.0973 12.0638 8.42589C12.5645 8.73883 12.9401 9.15347 13.1904 9.66982C13.4564 10.1862 13.5738 10.7651 13.5425 11.4066C13.4955 12.4237 13.1904 13.3077 12.6271 14.0588C12.0795 14.8099 11.3362 15.3966 10.3974 15.8191C9.4586 16.2259 8.41025 16.4293 7.25238 16.4293H0ZM4.01345 13.6129H7.1585C7.75308 13.6129 8.25378 13.5112 8.66061 13.3077C9.08307 13.1043 9.41166 12.8227 9.64637 12.4628C9.88107 12.0873 10.0062 11.6492 10.0219 11.1485C10.0532 10.5852 9.88107 10.1471 9.50554 9.83412C9.13002 9.50553 8.58237 9.34124 7.86261 9.34124H4.76451L4.01345 13.6129ZM5.23392 6.78296H8.09731C8.91096 6.78296 9.56031 6.57955 10.0454 6.17273C10.5304 5.75026 10.7886 5.17915 10.8199 4.45938C10.8355 4.0995 10.7651 3.79439 10.6087 3.54404C10.4678 3.29369 10.241 3.10592 9.92801 2.98075C9.63072 2.83992 9.24737 2.76951 8.77796 2.76951L5.91456 2.79298L5.23392 6.78296Z" fill="#A6E500"/>
</svg>
